<svg width="103" height="56" viewBox="0 0 103 56" fill="none" xmlns="http://www.w3.org/2000/svg">
<rect width="101.728" height="56" rx="5" fill="white"/>
<g filter="url(#filter0_d_17_10)">
<mask id="path-2-outside-1_17_10" maskUnits="userSpaceOnUse" x="42" y="17" width="48" height="21" fill="black">
<rect fill="white" x="42" y="17" width="48" height="21"/>
<path d="M49.2506 35.096C50.4266 35.096 51.332 34.844 51.9666 34.34C52.6013 33.8173 52.9186 33.0613 52.9186 32.072C52.9186 31.2507 52.6946 30.56 52.2466 30C51.8173 29.44 51.108 29.0107 50.1186 28.712L47.8506 28.04C46.432 27.6107 45.3866 26.9667 44.7146 26.108C44.0426 25.2307 43.7066 24.1573 43.7066 22.888C43.7066 21.9173 43.8933 21.04 44.2666 20.256C44.6586 19.472 45.2746 18.8467 46.1146 18.38C46.9733 17.9133 48.0933 17.68 49.4746 17.68C50.3146 17.68 51.1826 17.7827 52.0786 17.988C52.9746 18.1747 53.88 18.4827 54.7946 18.912L54.0106 21.012C53.1146 20.62 52.3026 20.34 51.5746 20.172C50.8653 19.9853 50.184 19.892 49.5306 19.892C48.4666 19.892 47.636 20.116 47.0386 20.564C46.46 20.9933 46.1706 21.712 46.1706 22.72C46.1706 23.448 46.3666 24.064 46.7586 24.568C47.1506 25.0533 47.8506 25.4547 48.8586 25.772L51.1266 26.444C53.964 27.284 55.3826 29.0947 55.3826 31.876C55.3826 33.4813 54.8973 34.788 53.9266 35.796C52.956 36.7853 51.3973 37.28 49.2506 37.28C48.3733 37.28 47.44 37.1773 46.4506 36.972C45.48 36.748 44.472 36.4027 43.4266 35.936L44.1826 33.864C45.172 34.312 46.0586 34.6293 46.8426 34.816C47.6453 35.0027 48.448 35.096 49.2506 35.096ZM71.5627 35.684C71.0214 36.0387 70.2467 36.3933 69.2387 36.748C68.2494 37.1027 67.0547 37.28 65.6547 37.28C64.1427 37.28 62.864 36.9627 61.8187 36.328C60.792 35.6747 60.008 34.7693 59.4667 33.612C58.944 32.436 58.6827 31.0827 58.6827 29.552V25.38C58.6827 22.9907 59.28 21.1147 60.4747 19.752C61.688 18.3707 63.4427 17.68 65.7387 17.68C66.5787 17.68 67.456 17.7733 68.3707 17.96C69.304 18.1467 70.228 18.4547 71.1427 18.884L70.3587 20.984C68.6787 20.2933 67.148 19.948 65.7667 19.948C64.236 19.948 63.088 20.4147 62.3227 21.348C61.576 22.2627 61.2027 23.6067 61.2027 25.38V29.552C61.2027 31.232 61.5854 32.5667 62.3507 33.556C63.116 34.5453 64.2734 35.04 65.8227 35.04C66.42 35.04 67.0267 34.9747 67.6427 34.844C68.2774 34.7133 68.8374 34.536 69.3227 34.312V29.188H65.7667V27.032H71.5627V35.684ZM76.0291 17.96H78.5491V30.168C78.5491 31.6987 78.8665 32.8933 79.5011 33.752C80.1545 34.6107 81.1625 35.04 82.5251 35.04C83.9065 35.04 84.9145 34.6107 85.5491 33.752C86.1838 32.8933 86.5011 31.6987 86.5011 30.168V17.96H89.0211V30.168C89.0211 32.3893 88.4798 34.1347 87.3971 35.404C86.3145 36.6547 84.6905 37.28 82.5251 37.28C80.3411 37.28 78.7078 36.6547 77.6251 35.404C76.5611 34.1347 76.0291 32.3893 76.0291 30.168V17.96Z"/>
</mask>
<path d="M49.2506 35.096C50.4266 35.096 51.332 34.844 51.9666 34.34C52.6013 33.8173 52.9186 33.0613 52.9186 32.072C52.9186 31.2507 52.6946 30.56 52.2466 30C51.8173 29.44 51.108 29.0107 50.1186 28.712L47.8506 28.04C46.432 27.6107 45.3866 26.9667 44.7146 26.108C44.0426 25.2307 43.7066 24.1573 43.7066 22.888C43.7066 21.9173 43.8933 21.04 44.2666 20.256C44.6586 19.472 45.2746 18.8467 46.1146 18.38C46.9733 17.9133 48.0933 17.68 49.4746 17.68C50.3146 17.68 51.1826 17.7827 52.0786 17.988C52.9746 18.1747 53.88 18.4827 54.7946 18.912L54.0106 21.012C53.1146 20.62 52.3026 20.34 51.5746 20.172C50.8653 19.9853 50.184 19.892 49.5306 19.892C48.4666 19.892 47.636 20.116 47.0386 20.564C46.46 20.9933 46.1706 21.712 46.1706 22.72C46.1706 23.448 46.3666 24.064 46.7586 24.568C47.1506 25.0533 47.8506 25.4547 48.8586 25.772L51.1266 26.444C53.964 27.284 55.3826 29.0947 55.3826 31.876C55.3826 33.4813 54.8973 34.788 53.9266 35.796C52.956 36.7853 51.3973 37.28 49.2506 37.28C48.3733 37.28 47.44 37.1773 46.4506 36.972C45.48 36.748 44.472 36.4027 43.4266 35.936L44.1826 33.864C45.172 34.312 46.0586 34.6293 46.8426 34.816C47.6453 35.0027 48.448 35.096 49.2506 35.096ZM71.5627 35.684C71.0214 36.0387 70.2467 36.3933 69.2387 36.748C68.2494 37.1027 67.0547 37.28 65.6547 37.28C64.1427 37.28 62.864 36.9627 61.8187 36.328C60.792 35.6747 60.008 34.7693 59.4667 33.612C58.944 32.436 58.6827 31.0827 58.6827 29.552V25.38C58.6827 22.9907 59.28 21.1147 60.4747 19.752C61.688 18.3707 63.4427 17.68 65.7387 17.68C66.5787 17.68 67.456 17.7733 68.3707 17.96C69.304 18.1467 70.228 18.4547 71.1427 18.884L70.3587 20.984C68.6787 20.2933 67.148 19.948 65.7667 19.948C64.236 19.948 63.088 20.4147 62.3227 21.348C61.576 22.2627 61.2027 23.6067 61.2027 25.38V29.552C61.2027 31.232 61.5854 32.5667 62.3507 33.556C63.116 34.5453 64.2734 35.04 65.8227 35.04C66.42 35.04 67.0267 34.9747 67.6427 34.844C68.2774 34.7133 68.8374 34.536 69.3227 34.312V29.188H65.7667V27.032H71.5627V35.684ZM76.0291 17.96H78.5491V30.168C78.5491 31.6987 78.8665 32.8933 79.5011 33.752C80.1545 34.6107 81.1625 35.04 82.5251 35.04C83.9065 35.04 84.9145 34.6107 85.5491 33.752C86.1838 32.8933 86.5011 31.6987 86.5011 30.168V17.96H89.0211V30.168C89.0211 32.3893 88.4798 34.1347 87.3971 35.404C86.3145 36.6547 84.6905 37.28 82.5251 37.28C80.3411 37.28 78.7078 36.6547 77.6251 35.404C76.5611 34.1347 76.0291 32.3893 76.0291 30.168V17.96Z" fill="#1D4ED8"/>
<path d="M51.9666 34.34L52.2776 34.7316L52.2845 34.726L51.9666 34.34ZM52.2466 30L51.8497 30.3043L51.8562 30.3123L52.2466 30ZM50.1186 28.712L50.2631 28.2333L50.2607 28.2326L50.1186 28.712ZM47.8506 28.04L47.7058 28.5186L47.7086 28.5194L47.8506 28.04ZM44.7146 26.108L44.3177 26.4121L44.3209 26.4162L44.7146 26.108ZM44.2666 20.256L43.8193 20.0324L43.8152 20.041L44.2666 20.256ZM46.1146 18.38L45.8759 17.9407L45.8718 17.9429L46.1146 18.38ZM52.0786 17.988L51.9669 18.4755L51.9766 18.4775L52.0786 17.988ZM54.7946 18.912L55.263 19.0869L55.4242 18.6552L55.0071 18.4594L54.7946 18.912ZM54.0106 21.012L53.8102 21.4701L54.2943 21.6818L54.479 21.1869L54.0106 21.012ZM51.5746 20.172L51.4474 20.6555L51.4548 20.6575L51.4622 20.6592L51.5746 20.172ZM47.0386 20.564L47.3366 20.9656L47.3386 20.964L47.0386 20.564ZM46.7586 24.568L46.3639 24.875L46.3697 24.8822L46.7586 24.568ZM48.8586 25.772L48.7085 26.249L48.7166 26.2514L48.8586 25.772ZM51.1266 26.444L50.9846 26.9234L50.9847 26.9234L51.1266 26.444ZM53.9266 35.796L54.2835 36.1462L54.2868 36.1428L53.9266 35.796ZM46.4506 36.972L46.3382 37.4593L46.349 37.4616L46.4506 36.972ZM43.4266 35.936L42.9569 35.7646L42.7971 36.2025L43.2228 36.3926L43.4266 35.936ZM44.1826 33.864L44.3889 33.4085L43.8977 33.1861L43.7129 33.6926L44.1826 33.864ZM46.8426 34.816L46.7268 35.3024L46.7294 35.303L46.8426 34.816ZM49.2506 35.596C50.4902 35.596 51.5223 35.3313 52.2776 34.7316L51.6557 33.9484C51.1416 34.3567 50.3631 34.596 49.2506 34.596V35.596ZM52.2845 34.726C53.0581 34.0889 53.4186 33.1772 53.4186 32.072H52.4186C52.4186 32.9455 52.1445 33.5458 51.6488 33.954L52.2845 34.726ZM53.4186 32.072C53.4186 31.1545 53.1661 30.349 52.6371 29.6877L51.8562 30.3123C52.2231 30.771 52.4186 31.3469 52.4186 32.072H53.4186ZM52.6434 29.6958C52.1269 29.0221 51.3083 28.5489 50.2631 28.2333L49.9741 29.1907C50.9076 29.4725 51.5076 29.8579 51.8498 30.3042L52.6434 29.6958ZM50.2607 28.2326L47.9927 27.5606L47.7086 28.5194L49.9766 29.1914L50.2607 28.2326ZM47.9955 27.5614C46.6407 27.1514 45.6978 26.5529 45.1084 25.7998L44.3209 26.4162C45.0755 27.3804 46.2233 28.0699 47.7058 28.5186L47.9955 27.5614ZM45.1116 25.804C44.5161 25.0265 44.2066 24.0645 44.2066 22.888H43.2066C43.2066 24.2502 43.5692 25.4348 44.3177 26.412L45.1116 25.804ZM44.2066 22.888C44.2066 21.9829 44.3803 21.1803 44.7181 20.471L43.8152 20.041C43.4063 20.8997 43.2066 21.8518 43.2066 22.888H44.2066ZM44.7138 20.4796C45.0564 19.7944 45.5967 19.2397 46.3574 18.8171L45.8718 17.9429C44.9526 18.4536 44.2608 19.1496 43.8194 20.0324L44.7138 20.4796ZM46.3534 18.8193C47.1147 18.4055 48.1442 18.18 49.4746 18.18V17.18C48.0424 17.18 46.8319 17.4211 45.8759 17.9407L46.3534 18.8193ZM49.4746 18.18C50.2737 18.18 51.1042 18.2776 51.9669 18.4754L52.1903 17.5006C51.2611 17.2877 50.3556 17.18 49.4746 17.18V18.18ZM51.9766 18.4775C52.8308 18.6554 53.6992 18.9501 54.5822 19.3646L55.0071 18.4594C54.0608 18.0152 53.1185 17.6939 52.1806 17.4985L51.9766 18.4775ZM54.3262 18.7371L53.5422 20.8371L54.479 21.1869L55.263 19.0869L54.3262 18.7371ZM54.211 20.5539C53.2948 20.1531 52.4528 19.8615 51.6871 19.6848L51.4622 20.6592C52.1524 20.8185 52.9344 21.0869 53.8102 21.4701L54.211 20.5539ZM51.7019 19.6885C50.956 19.4922 50.2318 19.392 49.5306 19.392V20.392C50.1361 20.392 50.7746 20.4785 51.4474 20.6555L51.7019 19.6885ZM49.5306 19.392C48.403 19.392 47.4524 19.6287 46.7386 20.164L47.3386 20.964C47.8195 20.6033 48.5302 20.392 49.5306 20.392V19.392ZM46.7407 20.1625C45.9891 20.7201 45.6706 21.6211 45.6706 22.72H46.6706C46.6706 21.8029 46.9308 21.2666 47.3365 20.9655L46.7407 20.1625ZM45.6706 22.72C45.6706 23.5428 45.8943 24.2711 46.3639 24.875L47.1533 24.261C46.839 23.8569 46.6706 23.3532 46.6706 22.72H45.6706ZM46.3697 24.8822C46.8531 25.4807 47.6647 25.9203 48.7085 26.2489L49.0088 25.2951C48.0365 24.989 47.4482 24.626 47.1476 24.2538L46.3697 24.8822ZM48.7166 26.2514L50.9846 26.9234L51.2687 25.9646L49.0007 25.2926L48.7166 26.2514ZM50.9847 26.9234C52.3322 27.3224 53.296 27.9375 53.925 28.7404C54.5519 29.5404 54.8826 30.573 54.8826 31.876H55.8826C55.8826 30.3977 55.504 29.1342 54.7122 28.1236C53.9226 27.1159 52.7583 26.4056 51.2686 25.9646L50.9847 26.9234ZM54.8826 31.876C54.8826 33.3725 54.4341 34.5482 53.5665 35.4492L54.2868 36.1428C55.3605 35.0278 55.8826 33.5901 55.8826 31.876H54.8826ZM53.5697 35.4458C52.7338 36.2979 51.3351 36.78 49.2506 36.78V37.78C51.4595 37.78 53.1781 37.2728 54.2835 36.1462L53.5697 35.4458ZM49.2506 36.78C48.4121 36.78 47.5131 36.6819 46.5522 36.4824L46.349 37.4616C47.3669 37.6728 48.3345 37.78 49.2506 37.78V36.78ZM46.5631 36.4848C45.628 36.269 44.6506 35.9349 43.6305 35.4794L43.2228 36.3926C44.2933 36.8705 45.3319 37.227 46.3382 37.4592L46.5631 36.4848ZM43.8963 36.1074L44.6523 34.0354L43.7129 33.6926L42.9569 35.7646L43.8963 36.1074ZM43.9764 34.3195C44.9855 34.7764 45.9032 35.1063 46.7268 35.3024L46.9584 34.3296C46.2141 34.1524 45.3584 33.8476 44.3889 33.4085L43.9764 34.3195ZM46.7294 35.303C47.5682 35.4981 48.4088 35.596 49.2506 35.596V34.596C48.4871 34.596 47.7224 34.5073 46.9559 34.329L46.7294 35.303ZM71.5627 35.684L71.8367 36.1022L72.0627 35.9542V35.684H71.5627ZM69.2387 36.748L69.0727 36.2763L69.07 36.2773L69.2387 36.748ZM61.8187 36.328L61.5502 36.7499L61.5592 36.7554L61.8187 36.328ZM59.4667 33.612L59.0097 33.8151L59.0138 33.8238L59.4667 33.612ZM60.4747 19.752L60.099 19.422L60.0987 19.4224L60.4747 19.752ZM68.3707 17.96L68.2707 18.4499L68.2726 18.4503L68.3707 17.96ZM71.1427 18.884L71.6111 19.0589L71.7723 18.6272L71.3551 18.4314L71.1427 18.884ZM70.3587 20.984L70.1686 21.4464L70.6464 21.6429L70.8271 21.1589L70.3587 20.984ZM62.3227 21.348L61.9361 21.031L61.9354 21.0318L62.3227 21.348ZM62.3507 33.556L62.7462 33.2501L62.3507 33.556ZM67.6427 34.844L67.5419 34.3543L67.5389 34.3549L67.6427 34.844ZM69.3227 34.312L69.5322 34.766L69.8227 34.6319V34.312H69.3227ZM69.3227 29.188H69.8227V28.688H69.3227V29.188ZM65.7667 29.188H65.2667V29.688H65.7667V29.188ZM65.7667 27.032V26.532H65.2667V27.032H65.7667ZM71.5627 27.032H72.0627V26.532H71.5627V27.032ZM71.2887 35.2658C70.7958 35.5887 70.0639 35.9276 69.0727 36.2763L69.4046 37.2197C70.4295 36.8591 71.2469 36.4886 71.8367 36.1022L71.2887 35.2658ZM69.07 36.2773C68.1494 36.6073 67.0151 36.78 65.6547 36.78V37.78C67.0943 37.78 68.3493 37.598 69.4074 37.2187L69.07 36.2773ZM65.6547 36.78C64.2127 36.78 63.0287 36.4777 62.0782 35.9006L61.5592 36.7554C62.6993 37.4476 64.0727 37.78 65.6547 37.78V36.78ZM62.0871 35.9062C61.1448 35.3065 60.4228 34.4759 59.9196 33.4002L59.0138 33.8238C59.5933 35.0628 60.4393 36.0429 61.5502 36.7498L62.0871 35.9062ZM59.9236 33.4089C59.4342 32.3078 59.1827 31.0258 59.1827 29.552H58.1827C58.1827 31.1396 58.4538 32.5642 59.0098 33.8151L59.9236 33.4089ZM59.1827 29.552V25.38H58.1827V29.552H59.1827ZM59.1827 25.38C59.1827 23.0727 59.7585 21.3273 60.8507 20.0816L60.0987 19.4224C58.8015 20.902 58.1827 22.9087 58.1827 25.38H59.1827ZM60.8503 20.082C61.9459 18.8347 63.5479 18.18 65.7387 18.18V17.18C63.3375 17.18 61.4301 17.9066 60.099 19.422L60.8503 20.082ZM65.7387 18.18C66.5416 18.18 67.3854 18.2692 68.2707 18.4499L68.4707 17.4701C67.5267 17.2774 66.6157 17.18 65.7387 17.18V18.18ZM68.2726 18.4503C69.1641 18.6286 70.0498 18.9234 70.9302 19.3366L71.3551 18.4314C70.4062 17.986 69.4439 17.6647 68.4687 17.4697L68.2726 18.4503ZM70.6743 18.7091L69.8903 20.8091L70.8271 21.1589L71.6111 19.0589L70.6743 18.7091ZM70.5488 20.5216C68.8265 19.8135 67.2303 19.448 65.7667 19.448V20.448C67.0658 20.448 68.5309 20.7732 70.1686 21.4464L70.5488 20.5216ZM65.7667 19.448C64.1299 19.448 62.8209 19.9518 61.9361 21.031L62.7093 21.665C63.3551 20.8775 64.3422 20.448 65.7667 20.448V19.448ZM61.9354 21.0318C61.0871 22.0709 60.7027 23.547 60.7027 25.38H61.7027C61.7027 23.6664 62.0649 22.4544 62.71 21.6642L61.9354 21.0318ZM60.7027 25.38V29.552H61.7027V25.38H60.7027ZM60.7027 29.552C60.7027 31.305 61.1022 32.7592 61.9552 33.8619L62.7462 33.2501C62.0686 32.3741 61.7027 31.159 61.7027 29.552H60.7027ZM61.9552 33.8619C62.8377 35.0027 64.1595 35.54 65.8227 35.54V34.54C64.3872 34.54 63.3943 34.0879 62.7462 33.2501L61.9552 33.8619ZM65.8227 35.54C66.4567 35.54 67.0982 35.4706 67.7464 35.3331L67.5389 34.3549C66.9552 34.4787 66.3833 34.54 65.8227 34.54V35.54ZM67.7435 35.3337C68.4081 35.1969 69.0057 35.009 69.5322 34.766L69.1132 33.858C68.669 34.063 68.1467 34.2298 67.5419 34.3543L67.7435 35.3337ZM69.8227 34.312V29.188H68.8227V34.312H69.8227ZM69.3227 28.688H65.7667V29.688H69.3227V28.688ZM66.2667 29.188V27.032H65.2667V29.188H66.2667ZM65.7667 27.532H71.5627V26.532H65.7667V27.532ZM71.0627 27.032V35.684H72.0627V27.032H71.0627ZM76.0291 17.96V17.46H75.5291V17.96H76.0291ZM78.5491 17.96H79.0491V17.46H78.5491V17.96ZM79.5011 33.752L79.099 34.0492L79.1032 34.0548L79.5011 33.752ZM85.5491 33.752L85.147 33.4548V33.4548L85.5491 33.752ZM86.5011 17.96V17.46H86.0011V17.96H86.5011ZM89.0211 17.96H89.5211V17.46H89.0211V17.96ZM87.3971 35.404L87.7752 35.7313L87.7775 35.7285L87.3971 35.404ZM77.6251 35.404L77.2419 35.7252L77.2471 35.7313L77.6251 35.404ZM76.0291 18.46H78.5491V17.46H76.0291V18.46ZM78.0491 17.96V30.168H79.0491V17.96H78.0491ZM78.0491 30.168C78.0491 31.7609 78.3785 33.0744 79.099 34.0492L79.9032 33.4548C79.3544 32.7123 79.0491 31.6365 79.0491 30.168H78.0491ZM79.1032 34.0548C79.8755 35.0698 81.0516 35.54 82.5251 35.54V34.54C81.2733 34.54 80.4334 34.1516 79.899 33.4492L79.1032 34.0548ZM82.5251 35.54C84.0139 35.54 85.1955 35.0716 85.9512 34.0492L85.147 33.4548C84.6334 34.1497 83.799 34.54 82.5251 34.54V35.54ZM85.9512 34.0492C86.6717 33.0744 87.0011 31.7609 87.0011 30.168H86.0011C86.0011 31.6365 85.6958 32.7123 85.147 33.4548L85.9512 34.0492ZM87.0011 30.168V17.96H86.0011V30.168H87.0011ZM86.5011 18.46H89.0211V17.46H86.5011V18.46ZM88.5211 17.96V30.168H89.5211V17.96H88.5211ZM88.5211 30.168C88.5211 32.3102 87.9998 33.927 87.0167 35.0795L87.7775 35.7285C88.9598 34.3424 89.5211 32.4685 89.5211 30.168H88.5211ZM87.0191 35.0767C86.0587 36.1861 84.5931 36.78 82.5251 36.78V37.78C84.7878 37.78 86.5702 37.1232 87.7752 35.7313L87.0191 35.0767ZM82.5251 36.78C80.4369 36.78 78.9627 36.1852 78.0032 35.0767L77.2471 35.7313C78.4529 37.1241 80.2453 37.78 82.5251 37.78V36.78ZM78.0083 35.0828C77.0421 33.9302 76.5291 32.3121 76.5291 30.168H75.5291C75.5291 32.4665 76.0801 34.3392 77.2419 35.7252L78.0083 35.0828ZM76.5291 30.168V17.96H75.5291V30.168H76.5291Z" fill="#1D4ED8" mask="url(#path-2-outside-1_17_10)"/>
</g>
<g filter="url(#filter1_d_17_10)">
<path fill-rule="evenodd" clip-rule="evenodd" d="M24.7943 16.4637L24.1669 17.9476C25.3147 20.3989 26.0214 21.9936 26.4272 23.0583C26.8827 23.1186 27.33 23.2421 27.7558 23.4275C28.6511 23.8172 29.4114 24.4626 29.9412 25.2828C30.471 26.1029 30.7469 27.0613 30.734 28.0377C30.7212 29.014 30.4204 29.9648 29.8692 30.7708C29.318 31.5768 28.541 32.202 27.6358 32.5681C26.4008 33.051 25.0246 33.0251 23.8087 32.4958C22.5927 31.9665 21.636 30.9771 21.1478 29.7441C21.116 29.6609 21.0865 29.5771 21.0593 29.4926C20.0382 29.2033 18.2536 28.4833 14.9279 27.0171L14.8118 27.0639C14.8178 27.0696 14.8238 27.0753 14.8298 27.0811V28.3811C11.8334 31.2676 11.8947 31.4187 12.0662 31.8416L12.0668 31.8431L13.2048 34.6601C13.3788 35.0911 13.4408 35.2441 17.5738 35.1361L18.4738 36.0711C18.3803 37.4388 18.4261 38.8126 18.6108 40.1711L18.7268 40.4361L21.7198 41.7441L21.7204 41.7444C22.1549 41.9261 22.307 41.9897 25.1058 38.9441L26.3678 38.9601C29.2628 42.0501 29.4108 41.9901 29.8338 41.8191L32.5928 40.7041C33.0288 40.5311 33.1808 40.4701 33.0058 36.2681L33.9058 35.3741C38.0698 35.5101 38.1338 35.3641 38.3168 34.9361L39.4608 32.1511L39.5458 31.8871L39.4528 31.6561C39.4038 31.5341 39.2528 31.1701 36.6528 28.6911V27.3871C39.6498 24.4999 39.589 24.3494 39.4184 23.9273L39.4178 23.9261L38.2788 21.1121L38.2786 21.1115C38.1078 20.6899 38.041 20.5251 33.9088 20.6381L33.0088 19.7081C33.1029 18.3382 33.0556 16.9623 32.8678 15.6021L32.7518 15.3391L29.7778 14.0391L29.7773 14.0388C29.7469 14.0249 29.7178 14.0116 29.6891 14C29.404 14.1244 29.0855 14.2591 28.7295 14.4056C28.2688 14.8081 27.5575 15.5403 26.3778 16.8251L25.1158 16.8061C25.0046 16.6873 24.8975 16.5733 24.7943 16.4637Z" fill="#1D4ED8"/>
</g>
<defs>
<filter id="filter0_d_17_10" x="39.4266" y="17.68" width="53.5945" height="27.6" filterUnits="userSpaceOnUse" color-interpolation-filters="sRGB">
<feFlood flood-opacity="0" result="BackgroundImageFix"/>
<feColorMatrix in="SourceAlpha" type="matrix" values="0 0 0 0 0 0 0 0 0 0 0 0 0 0 0 0 0 0 127 0" result="hardAlpha"/>
<feOffset dy="4"/>
<feGaussianBlur stdDeviation="2"/>
<feComposite in2="hardAlpha" operator="out"/>
<feColorMatrix type="matrix" values="0 0 0 0 0 0 0 0 0 0 0 0 0 0 0 0 0 0 0.25 0"/>
<feBlend mode="normal" in2="BackgroundImageFix" result="effect1_dropShadow_17_10"/>
<feBlend mode="normal" in="SourceGraphic" in2="effect1_dropShadow_17_10" result="shape"/>
</filter>
<filter id="filter1_d_17_10" x="8" y="14" width="35.5458" height="35.8841" filterUnits="userSpaceOnUse" color-interpolation-filters="sRGB">
<feFlood flood-opacity="0" result="BackgroundImageFix"/>
<feColorMatrix in="SourceAlpha" type="matrix" values="0 0 0 0 0 0 0 0 0 0 0 0 0 0 0 0 0 0 127 0" result="hardAlpha"/>
<feOffset dy="4"/>
<feGaussianBlur stdDeviation="2"/>
<feComposite in2="hardAlpha" operator="out"/>
<feColorMatrix type="matrix" values="0 0 0 0 0 0 0 0 0 0 0 0 0 0 0 0 0 0 0.25 0"/>
<feBlend mode="normal" in2="BackgroundImageFix" result="effect1_dropShadow_17_10"/>
<feBlend mode="normal" in="SourceGraphic" in2="effect1_dropShadow_17_10" result="shape"/>
</filter>
</defs>
</svg>
