<svg width="56" height="56" viewBox="0 0 56 56" fill="none" xmlns="http://www.w3.org/2000/svg">
<rect width="55.3086" height="56" rx="5" fill="white"/>
<g filter="url(#filter0_d_7_2)">
<mask id="path-2-outside-1_7_2" maskUnits="userSpaceOnUse" x="3" y="17" width="48" height="21" fill="black">
<rect fill="white" x="3" y="17" width="48" height="21"/>
<path d="M10.2506 35.096C11.4266 35.096 12.332 34.844 12.9666 34.34C13.6013 33.8173 13.9186 33.0613 13.9186 32.072C13.9186 31.2507 13.6946 30.56 13.2466 30C12.8173 29.44 12.108 29.0107 11.1186 28.712L8.85063 28.04C7.43196 27.6107 6.38663 26.9667 5.71463 26.108C5.04263 25.2307 4.70663 24.1573 4.70663 22.888C4.70663 21.9173 4.89329 21.04 5.26663 20.256C5.65863 19.472 6.27463 18.8467 7.11463 18.38C7.97329 17.9133 9.09329 17.68 10.4746 17.68C11.3146 17.68 12.1826 17.7827 13.0786 17.988C13.9746 18.1747 14.88 18.4827 15.7946 18.912L15.0106 21.012C14.1146 20.62 13.3026 20.34 12.5746 20.172C11.8653 19.9853 11.184 19.892 10.5306 19.892C9.46663 19.892 8.63596 20.116 8.03863 20.564C7.45996 20.9933 7.17063 21.712 7.17063 22.72C7.17063 23.448 7.36663 24.064 7.75863 24.568C8.15063 25.0533 8.85063 25.4547 9.85863 25.772L12.1266 26.444C14.964 27.284 16.3826 29.0947 16.3826 31.876C16.3826 33.4813 15.8973 34.788 14.9266 35.796C13.956 36.7853 12.3973 37.28 10.2506 37.28C9.37329 37.28 8.43996 37.1773 7.45063 36.972C6.47996 36.748 5.47196 36.4027 4.42663 35.936L5.18263 33.864C6.17196 34.312 7.05863 34.6293 7.84263 34.816C8.64529 35.0027 9.44796 35.096 10.2506 35.096ZM32.5627 35.684C32.0214 36.0387 31.2467 36.3933 30.2387 36.748C29.2494 37.1027 28.0547 37.28 26.6547 37.28C25.1427 37.28 23.864 36.9627 22.8187 36.328C21.792 35.6747 21.008 34.7693 20.4667 33.612C19.944 32.436 19.6827 31.0827 19.6827 29.552V25.38C19.6827 22.9907 20.28 21.1147 21.4747 19.752C22.688 18.3707 24.4427 17.68 26.7387 17.68C27.5787 17.68 28.456 17.7733 29.3707 17.96C30.304 18.1467 31.228 18.4547 32.1427 18.884L31.3587 20.984C29.6787 20.2933 28.148 19.948 26.7667 19.948C25.236 19.948 24.088 20.4147 23.3227 21.348C22.576 22.2627 22.2027 23.6067 22.2027 25.38V29.552C22.2027 31.232 22.5854 32.5667 23.3507 33.556C24.116 34.5453 25.2734 35.04 26.8227 35.04C27.42 35.04 28.0267 34.9747 28.6427 34.844C29.2774 34.7133 29.8374 34.536 30.3227 34.312V29.188H26.7667V27.032H32.5627V35.684ZM37.0291 17.96H39.5491V30.168C39.5491 31.6987 39.8665 32.8933 40.5011 33.752C41.1545 34.6107 42.1625 35.04 43.5251 35.04C44.9065 35.04 45.9145 34.6107 46.5491 33.752C47.1838 32.8933 47.5011 31.6987 47.5011 30.168V17.96H50.0211V30.168C50.0211 32.3893 49.4798 34.1347 48.3971 35.404C47.3145 36.6547 45.6905 37.28 43.5251 37.28C41.3411 37.28 39.7078 36.6547 38.6251 35.404C37.5611 34.1347 37.0291 32.3893 37.0291 30.168V17.96Z"/>
</mask>
<path d="M10.2506 35.096C11.4266 35.096 12.332 34.844 12.9666 34.34C13.6013 33.8173 13.9186 33.0613 13.9186 32.072C13.9186 31.2507 13.6946 30.56 13.2466 30C12.8173 29.44 12.108 29.0107 11.1186 28.712L8.85063 28.04C7.43196 27.6107 6.38663 26.9667 5.71463 26.108C5.04263 25.2307 4.70663 24.1573 4.70663 22.888C4.70663 21.9173 4.89329 21.04 5.26663 20.256C5.65863 19.472 6.27463 18.8467 7.11463 18.38C7.97329 17.9133 9.09329 17.68 10.4746 17.68C11.3146 17.68 12.1826 17.7827 13.0786 17.988C13.9746 18.1747 14.88 18.4827 15.7946 18.912L15.0106 21.012C14.1146 20.62 13.3026 20.34 12.5746 20.172C11.8653 19.9853 11.184 19.892 10.5306 19.892C9.46663 19.892 8.63596 20.116 8.03863 20.564C7.45996 20.9933 7.17063 21.712 7.17063 22.72C7.17063 23.448 7.36663 24.064 7.75863 24.568C8.15063 25.0533 8.85063 25.4547 9.85863 25.772L12.1266 26.444C14.964 27.284 16.3826 29.0947 16.3826 31.876C16.3826 33.4813 15.8973 34.788 14.9266 35.796C13.956 36.7853 12.3973 37.28 10.2506 37.28C9.37329 37.28 8.43996 37.1773 7.45063 36.972C6.47996 36.748 5.47196 36.4027 4.42663 35.936L5.18263 33.864C6.17196 34.312 7.05863 34.6293 7.84263 34.816C8.64529 35.0027 9.44796 35.096 10.2506 35.096ZM32.5627 35.684C32.0214 36.0387 31.2467 36.3933 30.2387 36.748C29.2494 37.1027 28.0547 37.28 26.6547 37.28C25.1427 37.28 23.864 36.9627 22.8187 36.328C21.792 35.6747 21.008 34.7693 20.4667 33.612C19.944 32.436 19.6827 31.0827 19.6827 29.552V25.38C19.6827 22.9907 20.28 21.1147 21.4747 19.752C22.688 18.3707 24.4427 17.68 26.7387 17.68C27.5787 17.68 28.456 17.7733 29.3707 17.96C30.304 18.1467 31.228 18.4547 32.1427 18.884L31.3587 20.984C29.6787 20.2933 28.148 19.948 26.7667 19.948C25.236 19.948 24.088 20.4147 23.3227 21.348C22.576 22.2627 22.2027 23.6067 22.2027 25.38V29.552C22.2027 31.232 22.5854 32.5667 23.3507 33.556C24.116 34.5453 25.2734 35.04 26.8227 35.04C27.42 35.04 28.0267 34.9747 28.6427 34.844C29.2774 34.7133 29.8374 34.536 30.3227 34.312V29.188H26.7667V27.032H32.5627V35.684ZM37.0291 17.96H39.5491V30.168C39.5491 31.6987 39.8665 32.8933 40.5011 33.752C41.1545 34.6107 42.1625 35.04 43.5251 35.04C44.9065 35.04 45.9145 34.6107 46.5491 33.752C47.1838 32.8933 47.5011 31.6987 47.5011 30.168V17.96H50.0211V30.168C50.0211 32.3893 49.4798 34.1347 48.3971 35.404C47.3145 36.6547 45.6905 37.28 43.5251 37.28C41.3411 37.28 39.7078 36.6547 38.6251 35.404C37.5611 34.1347 37.0291 32.3893 37.0291 30.168V17.96Z" fill="#1D4ED8"/>
<path d="M12.9666 34.34L13.2776 34.7316L13.2845 34.726L12.9666 34.34ZM13.2466 30L12.8497 30.3043L12.8562 30.3123L13.2466 30ZM11.1186 28.712L11.2631 28.2333L11.2607 28.2326L11.1186 28.712ZM8.85063 28.04L8.70579 28.5186L8.70858 28.5194L8.85063 28.04ZM5.71463 26.108L5.31766 26.4121L5.32087 26.4162L5.71463 26.108ZM5.26662 20.256L4.81933 20.0324L4.81519 20.041L5.26662 20.256ZM7.11462 18.38L6.87586 17.9407L6.8718 17.9429L7.11462 18.38ZM13.0786 17.988L12.9669 18.4755L12.9766 18.4775L13.0786 17.988ZM15.7946 18.912L16.263 19.0869L16.4242 18.6552L16.0071 18.4594L15.7946 18.912ZM15.0106 21.012L14.8102 21.4701L15.2943 21.6818L15.479 21.1869L15.0106 21.012ZM12.5746 20.172L12.4474 20.6555L12.4548 20.6575L12.4622 20.6592L12.5746 20.172ZM8.03863 20.564L8.33655 20.9656L8.33862 20.964L8.03863 20.564ZM7.75863 24.568L7.36388 24.875L7.36965 24.8822L7.75863 24.568ZM9.85863 25.772L9.70846 26.249L9.71658 26.2514L9.85863 25.772ZM12.1266 26.444L11.9846 26.9234L11.9847 26.9234L12.1266 26.444ZM14.9266 35.796L15.2835 36.1462L15.2868 36.1428L14.9266 35.796ZM7.45063 36.972L7.33817 37.4593L7.34902 37.4616L7.45063 36.972ZM4.42663 35.936L3.95691 35.7646L3.79713 36.2025L4.2228 36.3926L4.42663 35.936ZM5.18263 33.864L5.38888 33.4085L4.89772 33.1861L4.71291 33.6926L5.18263 33.864ZM7.84263 34.816L7.72681 35.3024L7.72937 35.303L7.84263 34.816ZM10.2506 35.596C11.4902 35.596 12.5223 35.3313 13.2776 34.7316L12.6557 33.9484C12.1416 34.3567 11.3631 34.596 10.2506 34.596V35.596ZM13.2845 34.726C14.0581 34.0889 14.4186 33.1772 14.4186 32.072H13.4186C13.4186 32.9455 13.1445 33.5458 12.6488 33.954L13.2845 34.726ZM14.4186 32.072C14.4186 31.1545 14.1661 30.349 13.6371 29.6877L12.8562 30.3123C13.2231 30.771 13.4186 31.3469 13.4186 32.072H14.4186ZM13.6434 29.6958C13.1269 29.0221 12.3083 28.5489 11.2631 28.2333L10.9741 29.1907C11.9076 29.4725 12.5076 29.8579 12.8498 30.3042L13.6434 29.6958ZM11.2607 28.2326L8.99267 27.5606L8.70858 28.5194L10.9766 29.1914L11.2607 28.2326ZM8.99545 27.5614C7.64066 27.1514 6.69776 26.5529 6.10838 25.7998L5.32087 26.4162C6.07549 27.3804 7.22326 28.0699 8.7058 28.5186L8.99545 27.5614ZM6.11156 25.804C5.51609 25.0265 5.20662 24.0645 5.20662 22.888H4.20662C4.20662 24.2502 4.56916 25.4348 5.31769 26.412L6.11156 25.804ZM5.20662 22.888C5.20662 21.9829 5.38029 21.1803 5.71806 20.471L4.81519 20.041C4.40629 20.8997 4.20662 21.8518 4.20662 22.888H5.20662ZM5.71384 20.4796C6.05644 19.7944 6.59667 19.2397 7.35745 18.8171L6.8718 17.9429C5.95258 18.4536 5.26081 19.1496 4.81941 20.0324L5.71384 20.4796ZM7.35338 18.8193C8.11473 18.4055 9.14421 18.18 10.4746 18.18V17.18C9.04238 17.18 7.83185 17.4211 6.87587 17.9407L7.35338 18.8193ZM10.4746 18.18C11.2737 18.18 12.1042 18.2776 12.9669 18.4754L13.1903 17.5006C12.2611 17.2877 11.3556 17.18 10.4746 17.18V18.18ZM12.9766 18.4775C13.8308 18.6554 14.6992 18.9501 15.5822 19.3646L16.0071 18.4594C15.0608 18.0152 14.1185 17.6939 13.1806 17.4985L12.9766 18.4775ZM15.3262 18.7371L14.5422 20.8371L15.479 21.1869L16.263 19.0869L15.3262 18.7371ZM15.211 20.5539C14.2948 20.1531 13.4528 19.8615 12.6871 19.6848L12.4622 20.6592C13.1524 20.8185 13.9344 21.0869 14.8102 21.4701L15.211 20.5539ZM12.7019 19.6885C11.956 19.4922 11.2318 19.392 10.5306 19.392V20.392C11.1361 20.392 11.7746 20.4785 12.4474 20.6555L12.7019 19.6885ZM10.5306 19.392C9.40301 19.392 8.45242 19.6287 7.73863 20.164L8.33862 20.964C8.81949 20.6033 9.53024 20.392 10.5306 20.392V19.392ZM7.7407 20.1625C6.98908 20.7201 6.67063 21.6211 6.67063 22.72H7.67063C7.67063 21.8029 7.93084 21.2666 8.33655 20.9655L7.7407 20.1625ZM6.67063 22.72C6.67063 23.5428 6.89428 24.2711 7.36395 24.875L8.1533 24.261C7.83897 23.8569 7.67063 23.3532 7.67063 22.72H6.67063ZM7.36965 24.8822C7.85307 25.4807 8.66471 25.9203 9.70848 26.2489L10.0088 25.2951C9.03654 24.989 8.44818 24.626 8.1476 24.2538L7.36965 24.8822ZM9.71658 26.2514L11.9846 26.9234L12.2687 25.9646L10.0007 25.2926L9.71658 26.2514ZM11.9847 26.9234C13.3322 27.3224 14.296 27.9375 14.925 28.7404C15.5519 29.5404 15.8826 30.573 15.8826 31.876H16.8826C16.8826 30.3977 16.504 29.1342 15.7122 28.1236C14.9226 27.1159 13.7583 26.4056 12.2686 25.9646L11.9847 26.9234ZM15.8826 31.876C15.8826 33.3725 15.4341 34.5482 14.5665 35.4492L15.2868 36.1428C16.3605 35.0278 16.8826 33.5901 16.8826 31.876H15.8826ZM14.5697 35.4458C13.7338 36.2979 12.3351 36.78 10.2506 36.78V37.78C12.4595 37.78 14.1781 37.2728 15.2835 36.1462L14.5697 35.4458ZM10.2506 36.78C9.41211 36.78 8.51306 36.6819 7.55223 36.4824L7.34902 37.4616C8.36686 37.6728 9.33448 37.78 10.2506 37.78V36.78ZM7.56306 36.4848C6.628 36.269 5.65063 35.9349 4.63045 35.4794L4.2228 36.3926C5.29329 36.8705 6.33191 37.227 7.3382 37.4592L7.56306 36.4848ZM4.89634 36.1074L5.65234 34.0354L4.71291 33.6926L3.95691 35.7646L4.89634 36.1074ZM4.97637 34.3195C5.98548 34.7764 6.90317 35.1063 7.72681 35.3024L7.95844 34.3296C7.21408 34.1524 6.35844 33.8476 5.38888 33.4085L4.97637 34.3195ZM7.72937 35.303C8.56817 35.4981 9.40883 35.596 10.2506 35.596V34.596C9.48709 34.596 8.72241 34.5073 7.95588 34.329L7.72937 35.303ZM32.5627 35.684L32.8367 36.1022L33.0627 35.9542V35.684H32.5627ZM30.2387 36.748L30.0727 36.2763L30.07 36.2773L30.2387 36.748ZM22.8187 36.328L22.5502 36.7499L22.5592 36.7554L22.8187 36.328ZM20.4667 33.612L20.0097 33.8151L20.0138 33.8238L20.4667 33.612ZM21.4747 19.752L21.099 19.422L21.0987 19.4224L21.4747 19.752ZM29.3707 17.96L29.2707 18.4499L29.2726 18.4503L29.3707 17.96ZM32.1427 18.884L32.6111 19.0589L32.7723 18.6272L32.3551 18.4314L32.1427 18.884ZM31.3587 20.984L31.1686 21.4464L31.6464 21.6429L31.8271 21.1589L31.3587 20.984ZM23.3227 21.348L22.9361 21.031L22.9354 21.0318L23.3227 21.348ZM23.3507 33.556L23.7462 33.2501L23.3507 33.556ZM28.6427 34.844L28.5419 34.3543L28.5389 34.3549L28.6427 34.844ZM30.3227 34.312L30.5322 34.766L30.8227 34.6319V34.312H30.3227ZM30.3227 29.188H30.8227V28.688H30.3227V29.188ZM26.7667 29.188H26.2667V29.688H26.7667V29.188ZM26.7667 27.032V26.532H26.2667V27.032H26.7667ZM32.5627 27.032H33.0627V26.532H32.5627V27.032ZM32.2887 35.2658C31.7958 35.5887 31.0639 35.9276 30.0727 36.2763L30.4046 37.2197C31.4295 36.8591 32.2469 36.4886 32.8367 36.1022L32.2887 35.2658ZM30.07 36.2773C29.1494 36.6073 28.0151 36.78 26.6547 36.78V37.78C28.0943 37.78 29.3493 37.598 30.4074 37.2187L30.07 36.2773ZM26.6547 36.78C25.2127 36.78 24.0287 36.4777 23.0782 35.9006L22.5592 36.7554C23.6993 37.4476 25.0727 37.78 26.6547 37.78V36.78ZM23.0871 35.9062C22.1448 35.3065 21.4228 34.4759 20.9196 33.4002L20.0138 33.8238C20.5933 35.0628 21.4393 36.0429 22.5502 36.7498L23.0871 35.9062ZM20.9236 33.4089C20.4342 32.3078 20.1827 31.0258 20.1827 29.552H19.1827C19.1827 31.1396 19.4538 32.5642 20.0098 33.8151L20.9236 33.4089ZM20.1827 29.552V25.38H19.1827V29.552H20.1827ZM20.1827 25.38C20.1827 23.0727 20.7585 21.3273 21.8507 20.0816L21.0987 19.4224C19.8015 20.902 19.1827 22.9087 19.1827 25.38H20.1827ZM21.8503 20.082C22.9459 18.8347 24.5479 18.18 26.7387 18.18V17.18C24.3375 17.18 22.4301 17.9066 21.099 19.422L21.8503 20.082ZM26.7387 18.18C27.5416 18.18 28.3854 18.2692 29.2707 18.4499L29.4707 17.4701C28.5267 17.2774 27.6157 17.18 26.7387 17.18V18.18ZM29.2726 18.4503C30.1641 18.6286 31.0498 18.9234 31.9302 19.3366L32.3551 18.4314C31.4062 17.986 30.4439 17.6647 29.4687 17.4697L29.2726 18.4503ZM31.6743 18.7091L30.8903 20.8091L31.8271 21.1589L32.6111 19.0589L31.6743 18.7091ZM31.5488 20.5216C29.8265 19.8135 28.2303 19.448 26.7667 19.448V20.448C28.0658 20.448 29.5309 20.7732 31.1686 21.4464L31.5488 20.5216ZM26.7667 19.448C25.1299 19.448 23.8209 19.9518 22.9361 21.031L23.7093 21.665C24.3551 20.8775 25.3422 20.448 26.7667 20.448V19.448ZM22.9354 21.0318C22.0871 22.0709 21.7027 23.547 21.7027 25.38H22.7027C22.7027 23.6664 23.0649 22.4544 23.71 21.6642L22.9354 21.0318ZM21.7027 25.38V29.552H22.7027V25.38H21.7027ZM21.7027 29.552C21.7027 31.305 22.1022 32.7592 22.9552 33.8619L23.7462 33.2501C23.0686 32.3741 22.7027 31.159 22.7027 29.552H21.7027ZM22.9552 33.8619C23.8377 35.0027 25.1595 35.54 26.8227 35.54V34.54C25.3872 34.54 24.3943 34.0879 23.7462 33.2501L22.9552 33.8619ZM26.8227 35.54C27.4567 35.54 28.0982 35.4706 28.7464 35.3331L28.5389 34.3549C27.9552 34.4787 27.3833 34.54 26.8227 34.54V35.54ZM28.7435 35.3337C29.4081 35.1969 30.0057 35.009 30.5322 34.766L30.1132 33.858C29.669 34.063 29.1467 34.2298 28.5419 34.3543L28.7435 35.3337ZM30.8227 34.312V29.188H29.8227V34.312H30.8227ZM30.3227 28.688H26.7667V29.688H30.3227V28.688ZM27.2667 29.188V27.032H26.2667V29.188H27.2667ZM26.7667 27.532H32.5627V26.532H26.7667V27.532ZM32.0627 27.032V35.684H33.0627V27.032H32.0627ZM37.0291 17.96V17.46H36.5291V17.96H37.0291ZM39.5491 17.96H40.0491V17.46H39.5491V17.96ZM40.5011 33.752L40.099 34.0492L40.1032 34.0548L40.5011 33.752ZM46.5491 33.752L46.147 33.4548V33.4548L46.5491 33.752ZM47.5011 17.96V17.46H47.0011V17.96H47.5011ZM50.0211 17.96H50.5211V17.46H50.0211V17.96ZM48.3971 35.404L48.7752 35.7313L48.7775 35.7285L48.3971 35.404ZM38.6251 35.404L38.2419 35.7252L38.2471 35.7313L38.6251 35.404ZM37.0291 18.46H39.5491V17.46H37.0291V18.46ZM39.0491 17.96V30.168H40.0491V17.96H39.0491ZM39.0491 30.168C39.0491 31.7609 39.3785 33.0744 40.099 34.0492L40.9032 33.4548C40.3544 32.7123 40.0491 31.6365 40.0491 30.168H39.0491ZM40.1032 34.0548C40.8755 35.0698 42.0516 35.54 43.5251 35.54V34.54C42.2733 34.54 41.4334 34.1516 40.899 33.4492L40.1032 34.0548ZM43.5251 35.54C45.0139 35.54 46.1955 35.0716 46.9512 34.0492L46.147 33.4548C45.6334 34.1497 44.799 34.54 43.5251 34.54V35.54ZM46.9512 34.0492C47.6717 33.0744 48.0011 31.7609 48.0011 30.168H47.0011C47.0011 31.6365 46.6958 32.7123 46.147 33.4548L46.9512 34.0492ZM48.0011 30.168V17.96H47.0011V30.168H48.0011ZM47.5011 18.46H50.0211V17.46H47.5011V18.46ZM49.5211 17.96V30.168H50.5211V17.96H49.5211ZM49.5211 30.168C49.5211 32.3102 48.9998 33.927 48.0167 35.0795L48.7775 35.7285C49.9598 34.3424 50.5211 32.4685 50.5211 30.168H49.5211ZM48.0191 35.0767C47.0587 36.1861 45.5931 36.78 43.5251 36.78V37.78C45.7878 37.78 47.5702 37.1232 48.7752 35.7313L48.0191 35.0767ZM43.5251 36.78C41.4369 36.78 39.9627 36.1852 39.0032 35.0767L38.2471 35.7313C39.4529 37.1241 41.2453 37.78 43.5251 37.78V36.78ZM39.0083 35.0828C38.0421 33.9302 37.5291 32.3121 37.5291 30.168H36.5291C36.5291 32.4665 37.0801 34.3392 38.2419 35.7252L39.0083 35.0828ZM37.5291 30.168V17.96H36.5291V30.168H37.5291Z" fill="#1D4ED8" mask="url(#path-2-outside-1_7_2)"/>
</g>
<defs>
<filter id="filter0_d_7_2" x="0.426636" y="17.68" width="53.5945" height="27.6" filterUnits="userSpaceOnUse" color-interpolation-filters="sRGB">
<feFlood flood-opacity="0" result="BackgroundImageFix"/>
<feColorMatrix in="SourceAlpha" type="matrix" values="0 0 0 0 0 0 0 0 0 0 0 0 0 0 0 0 0 0 127 0" result="hardAlpha"/>
<feOffset dy="4"/>
<feGaussianBlur stdDeviation="2"/>
<feComposite in2="hardAlpha" operator="out"/>
<feColorMatrix type="matrix" values="0 0 0 0 0 0 0 0 0 0 0 0 0 0 0 0 0 0 0.25 0"/>
<feBlend mode="normal" in2="BackgroundImageFix" result="effect1_dropShadow_7_2"/>
<feBlend mode="normal" in="SourceGraphic" in2="effect1_dropShadow_7_2" result="shape"/>
</filter>
</defs>
</svg>
