<svg width="95" height="43" viewBox="0 0 95 43" fill="none" xmlns="http://www.w3.org/2000/svg">
<g filter="url(#filter0_d_17_19)">
<path d="M42.0436 25.172C44.2089 25.172 45.2916 24.3693 45.2916 22.764C45.2916 22.1107 45.1236 21.5973 44.7876 21.224C44.4702 20.8507 43.8729 20.524 42.9956 20.244L40.6996 19.488C37.9556 18.592 36.5836 16.7907 36.5836 14.084C36.5836 12.516 37.0689 11.228 38.0396 10.22C39.0289 9.19333 40.5689 8.68 42.6596 8.68C43.5369 8.68 44.4049 8.78267 45.2636 8.988C46.1222 9.17467 47.0369 9.48267 48.0076 9.912L46.9716 12.796C46.0756 12.4413 45.3102 12.1893 44.6756 12.04C44.0596 11.872 43.4249 11.788 42.7716 11.788C41.9129 11.788 41.2316 11.9467 40.7276 12.264C40.2422 12.5627 39.9996 13.1133 39.9996 13.916C39.9996 14.5133 40.1676 15.008 40.5036 15.4C40.8582 15.7733 41.4369 16.0907 42.2396 16.352L44.5356 17.108C45.9169 17.5747 46.9529 18.256 47.6436 19.152C48.3529 20.0293 48.7076 21.196 48.7076 22.652C48.7076 24.332 48.1756 25.6947 47.1116 26.74C46.0476 27.7667 44.3769 28.28 42.0996 28.28C41.2036 28.28 40.2702 28.1773 39.2996 27.972C38.3476 27.748 37.3022 27.3747 36.1636 26.852L37.1996 23.968C38.2449 24.416 39.1316 24.7333 39.8596 24.92C40.6062 25.088 41.3342 25.172 42.0436 25.172ZM64.9918 26.768C64.5251 27.048 63.7504 27.3747 62.6678 27.748C61.6038 28.1027 60.3531 28.28 58.9158 28.28C57.2918 28.28 55.9291 27.944 54.8278 27.272C53.7451 26.6 52.9238 25.676 52.3638 24.5C51.8038 23.324 51.5238 21.98 51.5238 20.468V16.464C51.5238 14.9147 51.8038 13.5613 52.3638 12.404C52.9238 11.228 53.7544 10.3133 54.8558 9.66C55.9758 9.00667 57.3758 8.68 59.0558 8.68C59.8771 8.68 60.7264 8.77333 61.6038 8.96C62.4811 9.128 63.4424 9.44533 64.4878 9.912L63.4518 12.852C62.5371 12.4973 61.7438 12.2453 61.0718 12.096C60.4184 11.928 59.7651 11.844 59.1118 11.844C57.6558 11.844 56.6011 12.264 55.9478 13.104C55.2944 13.9253 54.9678 15.0453 54.9678 16.464V20.468C54.9678 21.812 55.2944 22.9133 55.9478 23.772C56.6198 24.6307 57.6651 25.06 59.0838 25.06C59.5131 25.06 59.9798 25.0227 60.4838 24.948C60.9878 24.8733 61.4731 24.7707 61.9398 24.64V20.468H58.8598V17.528H64.9918V26.768ZM68.8149 8.96H72.2589V21.168C72.2589 22.4 72.5295 23.3707 73.0709 24.08C73.6122 24.7707 74.4802 25.116 75.6749 25.116C76.8695 25.116 77.7375 24.7707 78.2789 24.08C78.8202 23.3707 79.0909 22.4 79.0909 21.168V8.96H82.5349V21.168C82.5349 23.3147 81.9655 25.0413 80.8269 26.348C79.6882 27.636 77.9709 28.28 75.6749 28.28C73.3602 28.28 71.6335 27.636 70.4949 26.348C69.3749 25.0413 68.8149 23.3147 68.8149 21.168V8.96Z" fill="white"/>
</g>
<g filter="url(#filter1_d_17_19)">
<path fill-rule="evenodd" clip-rule="evenodd" d="M16.7943 7.46373L16.1669 8.94757C17.3147 11.3989 18.0213 12.9936 18.4271 14.0583C18.8826 14.1186 19.33 14.2421 19.7558 14.4275C20.6511 14.8172 21.4114 15.4626 21.9412 16.2828C22.4711 17.1029 22.7469 18.0613 22.7341 19.0376C22.7212 20.014 22.4204 20.9648 21.8692 21.7708C21.318 22.5768 20.541 23.202 19.6358 23.5681C18.4008 24.051 17.0246 24.025 15.8087 23.4958C14.5927 22.9665 13.636 21.9771 13.1478 20.7441C13.116 20.6609 13.0865 20.577 13.0593 20.4926C12.0382 20.2033 10.2536 19.4833 6.9279 18.0171L6.81178 18.0639C6.81778 18.0696 6.82379 18.0753 6.82982 18.0811V19.3811C3.83338 22.2676 3.89467 22.4187 4.06621 22.8415L4.06682 22.8431L5.20482 25.6601C5.37882 26.0911 5.44082 26.2441 9.57382 26.1361L10.4738 27.0711C10.3802 28.4388 10.4261 29.8126 10.6108 31.1711L10.7268 31.4361L13.7198 32.7441L13.7204 32.7443C14.155 32.9261 14.307 32.9897 17.1058 29.9441L18.3678 29.9601C21.2627 33.0499 21.4108 32.9901 21.8338 32.8191L21.8338 32.8191L24.5928 31.7041C25.0288 31.5311 25.1808 31.4701 25.0058 27.2681L25.9058 26.3741C30.0698 26.5101 30.1338 26.3641 30.3168 25.9361L31.4608 23.1511L31.5458 22.8871L31.4528 22.6561C31.4038 22.5341 31.2528 22.1701 28.6528 19.6911V18.3871C31.6498 15.5 31.5889 15.3494 31.4183 14.9273L31.4178 14.9261L30.2788 12.1121L30.2786 12.1115C30.1078 11.6899 30.041 11.5251 25.9088 11.6381L25.0088 10.7081C25.1029 9.33818 25.0556 7.96226 24.8678 6.60206L24.7518 6.33906L21.7778 5.03906L21.7773 5.03883C21.7469 5.02492 21.7178 5.01164 21.6891 5C21.404 5.12438 21.0854 5.25904 20.7295 5.40563C20.2688 5.80806 19.5575 6.54034 18.3778 7.82506L17.1158 7.80606C17.0046 7.68736 16.8975 7.5733 16.7943 7.46373Z" fill="white"/>
</g>
<defs>
<filter id="filter0_d_17_19" x="32.1636" y="8.67999" width="54.3713" height="27.6" filterUnits="userSpaceOnUse" color-interpolation-filters="sRGB">
<feFlood flood-opacity="0" result="BackgroundImageFix"/>
<feColorMatrix in="SourceAlpha" type="matrix" values="0 0 0 0 0 0 0 0 0 0 0 0 0 0 0 0 0 0 127 0" result="hardAlpha"/>
<feOffset dy="4"/>
<feGaussianBlur stdDeviation="2"/>
<feComposite in2="hardAlpha" operator="out"/>
<feColorMatrix type="matrix" values="0 0 0 0 0 0 0 0 0 0 0 0 0 0 0 0 0 0 0.25 0"/>
<feBlend mode="normal" in2="BackgroundImageFix" result="effect1_dropShadow_17_19"/>
<feBlend mode="normal" in="SourceGraphic" in2="effect1_dropShadow_17_19" result="shape"/>
</filter>
<filter id="filter1_d_17_19" x="0" y="5" width="35.5458" height="35.884" filterUnits="userSpaceOnUse" color-interpolation-filters="sRGB">
<feFlood flood-opacity="0" result="BackgroundImageFix"/>
<feColorMatrix in="SourceAlpha" type="matrix" values="0 0 0 0 0 0 0 0 0 0 0 0 0 0 0 0 0 0 127 0" result="hardAlpha"/>
<feOffset dy="4"/>
<feGaussianBlur stdDeviation="2"/>
<feComposite in2="hardAlpha" operator="out"/>
<feColorMatrix type="matrix" values="0 0 0 0 0 0 0 0 0 0 0 0 0 0 0 0 0 0 0.25 0"/>
<feBlend mode="normal" in2="BackgroundImageFix" result="effect1_dropShadow_17_19"/>
<feBlend mode="normal" in="SourceGraphic" in2="effect1_dropShadow_17_19" result="shape"/>
</filter>
</defs>
</svg>
