<svg width="95" height="43" viewBox="0 0 95 43" fill="none" xmlns="http://www.w3.org/2000/svg">
<g filter="url(#filter0_d_18_22)">
<path d="M41.0436 25.172C43.2089 25.172 44.2916 24.3693 44.2916 22.764C44.2916 22.1107 44.1236 21.5973 43.7876 21.224C43.4702 20.8507 42.8729 20.524 41.9956 20.244L39.6996 19.488C36.9556 18.592 35.5836 16.7907 35.5836 14.084C35.5836 12.516 36.0689 11.228 37.0396 10.22C38.0289 9.19333 39.5689 8.68 41.6596 8.68C42.5369 8.68 43.4049 8.78267 44.2636 8.988C45.1222 9.17467 46.0369 9.48267 47.0076 9.912L45.9716 12.796C45.0756 12.4413 44.3102 12.1893 43.6756 12.04C43.0596 11.872 42.4249 11.788 41.7716 11.788C40.9129 11.788 40.2316 11.9467 39.7276 12.264C39.2422 12.5627 38.9996 13.1133 38.9996 13.916C38.9996 14.5133 39.1676 15.008 39.5036 15.4C39.8582 15.7733 40.4369 16.0907 41.2396 16.352L43.5356 17.108C44.9169 17.5747 45.9529 18.256 46.6436 19.152C47.3529 20.0293 47.7076 21.196 47.7076 22.652C47.7076 24.332 47.1756 25.6947 46.1116 26.74C45.0476 27.7667 43.3769 28.28 41.0996 28.28C40.2036 28.28 39.2702 28.1773 38.2996 27.972C37.3476 27.748 36.3022 27.3747 35.1636 26.852L36.1996 23.968C37.2449 24.416 38.1316 24.7333 38.8596 24.92C39.6062 25.088 40.3342 25.172 41.0436 25.172ZM63.9918 26.768C63.5251 27.048 62.7504 27.3747 61.6678 27.748C60.6038 28.1027 59.3531 28.28 57.9158 28.28C56.2918 28.28 54.9291 27.944 53.8278 27.272C52.7451 26.6 51.9238 25.676 51.3638 24.5C50.8038 23.324 50.5238 21.98 50.5238 20.468V16.464C50.5238 14.9147 50.8038 13.5613 51.3638 12.404C51.9238 11.228 52.7544 10.3133 53.8558 9.66C54.9758 9.00667 56.3758 8.68 58.0558 8.68C58.8771 8.68 59.7264 8.77333 60.6038 8.96C61.4811 9.128 62.4424 9.44533 63.4878 9.912L62.4518 12.852C61.5371 12.4973 60.7438 12.2453 60.0718 12.096C59.4184 11.928 58.7651 11.844 58.1118 11.844C56.6558 11.844 55.6011 12.264 54.9478 13.104C54.2944 13.9253 53.9678 15.0453 53.9678 16.464V20.468C53.9678 21.812 54.2944 22.9133 54.9478 23.772C55.6198 24.6307 56.6651 25.06 58.0838 25.06C58.5131 25.06 58.9798 25.0227 59.4838 24.948C59.9878 24.8733 60.4731 24.7707 60.9398 24.64V20.468H57.8598V17.528H63.9918V26.768ZM67.8149 8.96H71.2589V21.168C71.2589 22.4 71.5295 23.3707 72.0709 24.08C72.6122 24.7707 73.4802 25.116 74.6749 25.116C75.8695 25.116 76.7375 24.7707 77.2789 24.08C77.8202 23.3707 78.0909 22.4 78.0909 21.168V8.96H81.5349V21.168C81.5349 23.3147 80.9655 25.0413 79.8269 26.348C78.6882 27.636 76.9709 28.28 74.6749 28.28C72.3602 28.28 70.6335 27.636 69.4949 26.348C68.3749 25.0413 67.8149 23.3147 67.8149 21.168V8.96Z" fill="#1D4ED8"/>
</g>
<g filter="url(#filter1_d_18_22)">
<path fill-rule="evenodd" clip-rule="evenodd" d="M16.7943 7.46373L16.1669 8.94757C17.3147 11.3989 18.0213 12.9936 18.4271 14.0583C18.8826 14.1186 19.33 14.2421 19.7558 14.4275C20.6511 14.8172 21.4114 15.4626 21.9412 16.2828C22.4711 17.1029 22.7469 18.0613 22.7341 19.0376C22.7212 20.014 22.4204 20.9648 21.8692 21.7708C21.318 22.5768 20.541 23.202 19.6358 23.5681C18.4008 24.051 17.0246 24.025 15.8087 23.4958C14.5927 22.9665 13.636 21.9771 13.1478 20.7441C13.116 20.6609 13.0865 20.577 13.0593 20.4926C12.0382 20.2033 10.2536 19.4833 6.9279 18.0171L6.81178 18.0639C6.81778 18.0696 6.82379 18.0753 6.82982 18.0811V19.3811C3.83338 22.2676 3.89467 22.4187 4.06621 22.8415L4.06682 22.8431L5.20482 25.6601C5.37882 26.0911 5.44082 26.2441 9.57382 26.1361L10.4738 27.0711C10.3802 28.4388 10.4261 29.8126 10.6108 31.1711L10.7268 31.4361L13.7198 32.7441L13.7204 32.7443C14.155 32.9261 14.307 32.9897 17.1058 29.9441L18.3678 29.9601C21.2627 33.0499 21.4108 32.9901 21.8338 32.8191L21.8338 32.8191L24.5928 31.7041C25.0288 31.5311 25.1808 31.4701 25.0058 27.2681L25.9058 26.3741C30.0698 26.5101 30.1338 26.3641 30.3168 25.9361L31.4608 23.1511L31.5458 22.8871L31.4528 22.6561C31.4038 22.5341 31.2528 22.1701 28.6528 19.6911V18.3871C31.6498 15.5 31.5889 15.3494 31.4183 14.9273L31.4178 14.9261L30.2788 12.1121L30.2786 12.1115C30.1078 11.6899 30.041 11.5251 25.9088 11.6381L25.0088 10.7081C25.1029 9.33818 25.0556 7.96226 24.8678 6.60206L24.7518 6.33906L21.7778 5.03906L21.7773 5.03883C21.7469 5.02492 21.7178 5.01164 21.6891 5C21.404 5.12438 21.0854 5.25904 20.7295 5.40563C20.2688 5.80806 19.5575 6.54034 18.3778 7.82506L17.1158 7.80606C17.0046 7.68736 16.8975 7.5733 16.7943 7.46373Z" fill="#1D4ED8"/>
</g>
<defs>
<filter id="filter0_d_18_22" x="31.1636" y="8.67999" width="54.3713" height="27.6" filterUnits="userSpaceOnUse" color-interpolation-filters="sRGB">
<feFlood flood-opacity="0" result="BackgroundImageFix"/>
<feColorMatrix in="SourceAlpha" type="matrix" values="0 0 0 0 0 0 0 0 0 0 0 0 0 0 0 0 0 0 127 0" result="hardAlpha"/>
<feOffset dy="4"/>
<feGaussianBlur stdDeviation="2"/>
<feComposite in2="hardAlpha" operator="out"/>
<feColorMatrix type="matrix" values="0 0 0 0 0 0 0 0 0 0 0 0 0 0 0 0 0 0 0.25 0"/>
<feBlend mode="normal" in2="BackgroundImageFix" result="effect1_dropShadow_18_22"/>
<feBlend mode="normal" in="SourceGraphic" in2="effect1_dropShadow_18_22" result="shape"/>
</filter>
<filter id="filter1_d_18_22" x="0" y="5" width="35.5458" height="35.884" filterUnits="userSpaceOnUse" color-interpolation-filters="sRGB">
<feFlood flood-opacity="0" result="BackgroundImageFix"/>
<feColorMatrix in="SourceAlpha" type="matrix" values="0 0 0 0 0 0 0 0 0 0 0 0 0 0 0 0 0 0 127 0" result="hardAlpha"/>
<feOffset dy="4"/>
<feGaussianBlur stdDeviation="2"/>
<feComposite in2="hardAlpha" operator="out"/>
<feColorMatrix type="matrix" values="0 0 0 0 0 0 0 0 0 0 0 0 0 0 0 0 0 0 0.25 0"/>
<feBlend mode="normal" in2="BackgroundImageFix" result="effect1_dropShadow_18_22"/>
<feBlend mode="normal" in="SourceGraphic" in2="effect1_dropShadow_18_22" result="shape"/>
</filter>
</defs>
</svg>
