<svg width="63" height="43" viewBox="0 0 63 43" fill="none" xmlns="http://www.w3.org/2000/svg">
<rect width="62.2222" height="43" rx="5" fill="#1D4ED8"/>
<g filter="url(#filter0_d_7_2)">
<mask id="path-2-outside-1_7_2" maskUnits="userSpaceOnUse" x="7" y="13" width="48" height="21" fill="black">
<rect fill="white" x="7" y="13" width="48" height="21"/>
<path d="M13.7506 31.096C14.9266 31.096 15.832 30.844 16.4666 30.34C17.1013 29.8173 17.4186 29.0613 17.4186 28.072C17.4186 27.2507 17.1946 26.56 16.7466 26C16.3173 25.44 15.608 25.0107 14.6186 24.712L12.3506 24.04C10.932 23.6107 9.88663 22.9667 9.21463 22.108C8.54263 21.2307 8.20663 20.1573 8.20663 18.888C8.20663 17.9173 8.39329 17.04 8.76663 16.256C9.15863 15.472 9.77463 14.8467 10.6146 14.38C11.4733 13.9133 12.5933 13.68 13.9746 13.68C14.8146 13.68 15.6826 13.7827 16.5786 13.988C17.4746 14.1747 18.38 14.4827 19.2946 14.912L18.5106 17.012C17.6146 16.62 16.8026 16.34 16.0746 16.172C15.3653 15.9853 14.684 15.892 14.0306 15.892C12.9666 15.892 12.136 16.116 11.5386 16.564C10.96 16.9933 10.6706 17.712 10.6706 18.72C10.6706 19.448 10.8666 20.064 11.2586 20.568C11.6506 21.0533 12.3506 21.4547 13.3586 21.772L15.6266 22.444C18.464 23.284 19.8826 25.0947 19.8826 27.876C19.8826 29.4813 19.3973 30.788 18.4266 31.796C17.456 32.7853 15.8973 33.28 13.7506 33.28C12.8733 33.28 11.94 33.1773 10.9506 32.972C9.97996 32.748 8.97196 32.4027 7.92663 31.936L8.68263 29.864C9.67196 30.312 10.5586 30.6293 11.3426 30.816C12.1453 31.0027 12.948 31.096 13.7506 31.096ZM36.0627 31.684C35.5214 32.0387 34.7467 32.3933 33.7387 32.748C32.7494 33.1027 31.5547 33.28 30.1547 33.28C28.6427 33.28 27.364 32.9627 26.3187 32.328C25.292 31.6747 24.508 30.7693 23.9667 29.612C23.444 28.436 23.1827 27.0827 23.1827 25.552V21.38C23.1827 18.9907 23.78 17.1147 24.9747 15.752C26.188 14.3707 27.9427 13.68 30.2387 13.68C31.0787 13.68 31.956 13.7733 32.8707 13.96C33.804 14.1467 34.728 14.4547 35.6427 14.884L34.8587 16.984C33.1787 16.2933 31.648 15.948 30.2667 15.948C28.736 15.948 27.588 16.4147 26.8227 17.348C26.076 18.2627 25.7027 19.6067 25.7027 21.38V25.552C25.7027 27.232 26.0854 28.5667 26.8507 29.556C27.616 30.5453 28.7734 31.04 30.3227 31.04C30.92 31.04 31.5267 30.9747 32.1427 30.844C32.7774 30.7133 33.3374 30.536 33.8227 30.312V25.188H30.2667V23.032H36.0627V31.684ZM40.5291 13.96H43.0491V26.168C43.0491 27.6987 43.3665 28.8933 44.0011 29.752C44.6545 30.6107 45.6625 31.04 47.0251 31.04C48.4065 31.04 49.4145 30.6107 50.0491 29.752C50.6838 28.8933 51.0011 27.6987 51.0011 26.168V13.96H53.5211V26.168C53.5211 28.3893 52.9798 30.1347 51.8971 31.404C50.8145 32.6547 49.1905 33.28 47.0251 33.28C44.8411 33.28 43.2078 32.6547 42.1251 31.404C41.0611 30.1347 40.5291 28.3893 40.5291 26.168V13.96Z"/>
</mask>
<path d="M13.7506 31.096C14.9266 31.096 15.832 30.844 16.4666 30.34C17.1013 29.8173 17.4186 29.0613 17.4186 28.072C17.4186 27.2507 17.1946 26.56 16.7466 26C16.3173 25.44 15.608 25.0107 14.6186 24.712L12.3506 24.04C10.932 23.6107 9.88663 22.9667 9.21463 22.108C8.54263 21.2307 8.20663 20.1573 8.20663 18.888C8.20663 17.9173 8.39329 17.04 8.76663 16.256C9.15863 15.472 9.77463 14.8467 10.6146 14.38C11.4733 13.9133 12.5933 13.68 13.9746 13.68C14.8146 13.68 15.6826 13.7827 16.5786 13.988C17.4746 14.1747 18.38 14.4827 19.2946 14.912L18.5106 17.012C17.6146 16.62 16.8026 16.34 16.0746 16.172C15.3653 15.9853 14.684 15.892 14.0306 15.892C12.9666 15.892 12.136 16.116 11.5386 16.564C10.96 16.9933 10.6706 17.712 10.6706 18.72C10.6706 19.448 10.8666 20.064 11.2586 20.568C11.6506 21.0533 12.3506 21.4547 13.3586 21.772L15.6266 22.444C18.464 23.284 19.8826 25.0947 19.8826 27.876C19.8826 29.4813 19.3973 30.788 18.4266 31.796C17.456 32.7853 15.8973 33.28 13.7506 33.28C12.8733 33.28 11.94 33.1773 10.9506 32.972C9.97996 32.748 8.97196 32.4027 7.92663 31.936L8.68263 29.864C9.67196 30.312 10.5586 30.6293 11.3426 30.816C12.1453 31.0027 12.948 31.096 13.7506 31.096ZM36.0627 31.684C35.5214 32.0387 34.7467 32.3933 33.7387 32.748C32.7494 33.1027 31.5547 33.28 30.1547 33.28C28.6427 33.28 27.364 32.9627 26.3187 32.328C25.292 31.6747 24.508 30.7693 23.9667 29.612C23.444 28.436 23.1827 27.0827 23.1827 25.552V21.38C23.1827 18.9907 23.78 17.1147 24.9747 15.752C26.188 14.3707 27.9427 13.68 30.2387 13.68C31.0787 13.68 31.956 13.7733 32.8707 13.96C33.804 14.1467 34.728 14.4547 35.6427 14.884L34.8587 16.984C33.1787 16.2933 31.648 15.948 30.2667 15.948C28.736 15.948 27.588 16.4147 26.8227 17.348C26.076 18.2627 25.7027 19.6067 25.7027 21.38V25.552C25.7027 27.232 26.0854 28.5667 26.8507 29.556C27.616 30.5453 28.7734 31.04 30.3227 31.04C30.92 31.04 31.5267 30.9747 32.1427 30.844C32.7774 30.7133 33.3374 30.536 33.8227 30.312V25.188H30.2667V23.032H36.0627V31.684ZM40.5291 13.96H43.0491V26.168C43.0491 27.6987 43.3665 28.8933 44.0011 29.752C44.6545 30.6107 45.6625 31.04 47.0251 31.04C48.4065 31.04 49.4145 30.6107 50.0491 29.752C50.6838 28.8933 51.0011 27.6987 51.0011 26.168V13.96H53.5211V26.168C53.5211 28.3893 52.9798 30.1347 51.8971 31.404C50.8145 32.6547 49.1905 33.28 47.0251 33.28C44.8411 33.28 43.2078 32.6547 42.1251 31.404C41.0611 30.1347 40.5291 28.3893 40.5291 26.168V13.96Z" fill="white"/>
<path d="M16.4666 30.34L16.7776 30.7316L16.7845 30.726L16.4666 30.34ZM16.7466 26L16.3497 26.3043L16.3562 26.3123L16.7466 26ZM14.6186 24.712L14.7631 24.2333L14.7607 24.2326L14.6186 24.712ZM12.3506 24.04L12.2058 24.5186L12.2086 24.5194L12.3506 24.04ZM9.21463 22.108L8.81766 22.4121L8.82087 22.4162L9.21463 22.108ZM8.76663 16.256L8.31933 16.0324L8.31519 16.041L8.76663 16.256ZM10.6146 14.38L10.3759 13.9407L10.3718 13.9429L10.6146 14.38ZM16.5786 13.988L16.4669 14.4755L16.4766 14.4775L16.5786 13.988ZM19.2946 14.912L19.763 15.0869L19.9242 14.6552L19.5071 14.4594L19.2946 14.912ZM18.5106 17.012L18.3102 17.4701L18.7943 17.6818L18.979 17.1869L18.5106 17.012ZM16.0746 16.172L15.9474 16.6555L15.9548 16.6575L15.9622 16.6592L16.0746 16.172ZM11.5386 16.564L11.8366 16.9656L11.8386 16.964L11.5386 16.564ZM11.2586 20.568L10.8639 20.875L10.8697 20.8822L11.2586 20.568ZM13.3586 21.772L13.2085 22.249L13.2166 22.2514L13.3586 21.772ZM15.6266 22.444L15.4846 22.9234L15.4847 22.9234L15.6266 22.444ZM18.4266 31.796L18.7835 32.1462L18.7868 32.1428L18.4266 31.796ZM10.9506 32.972L10.8382 33.4593L10.849 33.4616L10.9506 32.972ZM7.92663 31.936L7.45691 31.7646L7.29713 32.2025L7.7228 32.3926L7.92663 31.936ZM8.68263 29.864L8.88888 29.4085L8.39772 29.1861L8.21291 29.6926L8.68263 29.864ZM11.3426 30.816L11.2268 31.3024L11.2294 31.303L11.3426 30.816ZM13.7506 31.596C14.9902 31.596 16.0223 31.3313 16.7776 30.7316L16.1557 29.9484C15.6416 30.3567 14.8631 30.596 13.7506 30.596V31.596ZM16.7845 30.726C17.5581 30.0889 17.9186 29.1772 17.9186 28.072H16.9186C16.9186 28.9455 16.6445 29.5458 16.1488 29.954L16.7845 30.726ZM17.9186 28.072C17.9186 27.1545 17.6661 26.349 17.1371 25.6877L16.3562 26.3123C16.7231 26.771 16.9186 27.3469 16.9186 28.072H17.9186ZM17.1434 25.6958C16.6269 25.0221 15.8083 24.5489 14.7631 24.2333L14.4741 25.1907C15.4076 25.4725 16.0076 25.8579 16.3498 26.3042L17.1434 25.6958ZM14.7607 24.2326L12.4927 23.5606L12.2086 24.5194L14.4766 25.1914L14.7607 24.2326ZM12.4955 23.5614C11.1407 23.1514 10.1978 22.5529 9.60838 21.7998L8.82087 22.4162C9.57549 23.3804 10.7233 24.0699 12.2058 24.5186L12.4955 23.5614ZM9.61156 21.804C9.01609 21.0265 8.70663 20.0645 8.70663 18.888H7.70663C7.70663 20.2502 8.06916 21.4348 8.81769 22.412L9.61156 21.804ZM8.70663 18.888C8.70663 17.9829 8.88029 17.1803 9.21806 16.471L8.31519 16.041C7.90629 16.8997 7.70663 17.8518 7.70663 18.888H8.70663ZM9.21384 16.4796C9.55644 15.7944 10.0967 15.2397 10.8574 14.8171L10.3718 13.9429C9.45258 14.4536 8.76081 15.1496 8.31941 16.0324L9.21384 16.4796ZM10.8534 14.8193C11.6147 14.4055 12.6442 14.18 13.9746 14.18V13.18C12.5424 13.18 11.3319 13.4211 10.3759 13.9407L10.8534 14.8193ZM13.9746 14.18C14.7737 14.18 15.6042 14.2776 16.4669 14.4754L16.6903 13.5006C15.7611 13.2877 14.8556 13.18 13.9746 13.18V14.18ZM16.4766 14.4775C17.3308 14.6554 18.1992 14.9501 19.0822 15.3646L19.5071 14.4594C18.5608 14.0152 17.6185 13.6939 16.6806 13.4985L16.4766 14.4775ZM18.8262 14.7371L18.0422 16.8371L18.979 17.1869L19.763 15.0869L18.8262 14.7371ZM18.711 16.5539C17.7948 16.1531 16.9528 15.8615 16.1871 15.6848L15.9622 16.6592C16.6524 16.8185 17.4344 17.0869 18.3102 17.4701L18.711 16.5539ZM16.2019 15.6885C15.456 15.4922 14.7318 15.392 14.0306 15.392V16.392C14.6361 16.392 15.2746 16.4785 15.9474 16.6555L16.2019 15.6885ZM14.0306 15.392C12.903 15.392 11.9524 15.6287 11.2386 16.164L11.8386 16.964C12.3195 16.6033 13.0302 16.392 14.0306 16.392V15.392ZM11.2407 16.1625C10.4891 16.7201 10.1706 17.6211 10.1706 18.72H11.1706C11.1706 17.8029 11.4308 17.2666 11.8365 16.9655L11.2407 16.1625ZM10.1706 18.72C10.1706 19.5428 10.3943 20.2711 10.8639 20.875L11.6533 20.261C11.339 19.8569 11.1706 19.3532 11.1706 18.72H10.1706ZM10.8697 20.8822C11.3531 21.4807 12.1647 21.9203 13.2085 22.2489L13.5088 21.2951C12.5365 20.989 11.9482 20.626 11.6476 20.2538L10.8697 20.8822ZM13.2166 22.2514L15.4846 22.9234L15.7687 21.9646L13.5007 21.2926L13.2166 22.2514ZM15.4847 22.9234C16.8322 23.3224 17.796 23.9375 18.425 24.7404C19.0519 25.5404 19.3826 26.573 19.3826 27.876H20.3826C20.3826 26.3977 20.004 25.1342 19.2122 24.1236C18.4226 23.1159 17.2583 22.4056 15.7686 21.9646L15.4847 22.9234ZM19.3826 27.876C19.3826 29.3725 18.9341 30.5482 18.0665 31.4492L18.7868 32.1428C19.8605 31.0278 20.3826 29.5901 20.3826 27.876H19.3826ZM18.0697 31.4458C17.2338 32.2979 15.8351 32.78 13.7506 32.78V33.78C15.9595 33.78 17.6781 33.2728 18.7835 32.1462L18.0697 31.4458ZM13.7506 32.78C12.9121 32.78 12.0131 32.6818 11.0522 32.4824L10.849 33.4616C11.8669 33.6728 12.8345 33.78 13.7506 33.78V32.78ZM11.0631 32.4848C10.128 32.269 9.15063 31.9349 8.13045 31.4794L7.7228 32.3926C8.79329 32.8705 9.83191 33.227 10.8382 33.4592L11.0631 32.4848ZM8.39634 32.1074L9.15234 30.0354L8.21291 29.6926L7.45691 31.7646L8.39634 32.1074ZM8.47637 30.3195C9.48548 30.7764 10.4032 31.1063 11.2268 31.3024L11.4584 30.3296C10.7141 30.1524 9.85844 29.8476 8.88888 29.4085L8.47637 30.3195ZM11.2294 31.303C12.0682 31.4981 12.9088 31.596 13.7506 31.596V30.596C12.9871 30.596 12.2224 30.5073 11.4559 30.329L11.2294 31.303ZM36.0627 31.684L36.3367 32.1022L36.5627 31.9542V31.684H36.0627ZM33.7387 32.748L33.5727 32.2763L33.57 32.2773L33.7387 32.748ZM26.3187 32.328L26.0502 32.7499L26.0592 32.7554L26.3187 32.328ZM23.9667 29.612L23.5097 29.8151L23.5138 29.8238L23.9667 29.612ZM24.9747 15.752L24.599 15.422L24.5987 15.4224L24.9747 15.752ZM32.8707 13.96L32.7707 14.4499L32.7726 14.4503L32.8707 13.96ZM35.6427 14.884L36.1111 15.0589L36.2723 14.6272L35.8551 14.4314L35.6427 14.884ZM34.8587 16.984L34.6686 17.4464L35.1464 17.6429L35.3271 17.1589L34.8587 16.984ZM26.8227 17.348L26.4361 17.031L26.4354 17.0318L26.8227 17.348ZM26.8507 29.556L27.2462 29.2501L27.2462 29.2501L26.8507 29.556ZM32.1427 30.844L32.0419 30.3543L32.0389 30.3549L32.1427 30.844ZM33.8227 30.312L34.0322 30.766L34.3227 30.6319V30.312H33.8227ZM33.8227 25.188H34.3227V24.688H33.8227V25.188ZM30.2667 25.188H29.7667V25.688H30.2667V25.188ZM30.2667 23.032V22.532H29.7667V23.032H30.2667ZM36.0627 23.032H36.5627V22.532H36.0627V23.032ZM35.7887 31.2658C35.2958 31.5887 34.5639 31.9276 33.5727 32.2763L33.9046 33.2197C34.9295 32.8591 35.7469 32.4886 36.3367 32.1022L35.7887 31.2658ZM33.57 32.2773C32.6494 32.6073 31.5151 32.78 30.1547 32.78V33.78C31.5943 33.78 32.8493 33.598 33.9074 33.2187L33.57 32.2773ZM30.1547 32.78C28.7127 32.78 27.5287 32.4777 26.5782 31.9006L26.0592 32.7554C27.1993 33.4476 28.5727 33.78 30.1547 33.78V32.78ZM26.5871 31.9062C25.6448 31.3065 24.9228 30.4759 24.4196 29.4002L23.5138 29.8238C24.0933 31.0628 24.9393 32.0428 26.0502 32.7498L26.5871 31.9062ZM24.4236 29.4089C23.9342 28.3078 23.6827 27.0258 23.6827 25.552H22.6827C22.6827 27.1396 22.9538 28.5642 23.5098 29.8151L24.4236 29.4089ZM23.6827 25.552V21.38H22.6827V25.552H23.6827ZM23.6827 21.38C23.6827 19.0727 24.2585 17.3273 25.3507 16.0816L24.5987 15.4224C23.3015 16.902 22.6827 18.9087 22.6827 21.38H23.6827ZM25.3503 16.082C26.4459 14.8347 28.0479 14.18 30.2387 14.18V13.18C27.8375 13.18 25.9301 13.9066 24.599 15.422L25.3503 16.082ZM30.2387 14.18C31.0416 14.18 31.8854 14.2692 32.7707 14.4499L32.9707 13.4701C32.0267 13.2774 31.1157 13.18 30.2387 13.18V14.18ZM32.7726 14.4503C33.6641 14.6286 34.5498 14.9234 35.4302 15.3366L35.8551 14.4314C34.9062 13.986 33.9439 13.6647 32.9687 13.4697L32.7726 14.4503ZM35.1743 14.7091L34.3903 16.8091L35.3271 17.1589L36.1111 15.0589L35.1743 14.7091ZM35.0488 16.5216C33.3265 15.8135 31.7303 15.448 30.2667 15.448V16.448C31.5658 16.448 33.0309 16.7732 34.6686 17.4464L35.0488 16.5216ZM30.2667 15.448C28.6299 15.448 27.3209 15.9518 26.4361 17.031L27.2093 17.665C27.8551 16.8775 28.8422 16.448 30.2667 16.448V15.448ZM26.4354 17.0318C25.5871 18.0709 25.2027 19.547 25.2027 21.38H26.2027C26.2027 19.6664 26.5649 18.4544 27.21 17.6642L26.4354 17.0318ZM25.2027 21.38V25.552H26.2027V21.38H25.2027ZM25.2027 25.552C25.2027 27.305 25.6022 28.7592 26.4552 29.8619L27.2462 29.2501C26.5686 28.3741 26.2027 27.159 26.2027 25.552H25.2027ZM26.4552 29.8619C27.3377 31.0027 28.6595 31.54 30.3227 31.54V30.54C28.8872 30.54 27.8943 30.0879 27.2462 29.2501L26.4552 29.8619ZM30.3227 31.54C30.9567 31.54 31.5982 31.4706 32.2464 31.3331L32.0389 30.3549C31.4552 30.4787 30.8833 30.54 30.3227 30.54V31.54ZM32.2435 31.3337C32.9081 31.1969 33.5057 31.009 34.0322 30.766L33.6132 29.858C33.169 30.063 32.6467 30.2298 32.0419 30.3543L32.2435 31.3337ZM34.3227 30.312V25.188H33.3227V30.312H34.3227ZM33.8227 24.688H30.2667V25.688H33.8227V24.688ZM30.7667 25.188V23.032H29.7667V25.188H30.7667ZM30.2667 23.532H36.0627V22.532H30.2667V23.532ZM35.5627 23.032V31.684H36.5627V23.032H35.5627ZM40.5291 13.96V13.46H40.0291V13.96H40.5291ZM43.0491 13.96H43.5491V13.46H43.0491V13.96ZM44.0011 29.752L43.599 30.0492L43.6032 30.0548L44.0011 29.752ZM50.0491 29.752L49.647 29.4548L49.647 29.4548L50.0491 29.752ZM51.0011 13.96V13.46H50.5011V13.96H51.0011ZM53.5211 13.96H54.0211V13.46H53.5211V13.96ZM51.8971 31.404L52.2752 31.7313L52.2775 31.7285L51.8971 31.404ZM42.1251 31.404L41.7419 31.7252L41.7471 31.7313L42.1251 31.404ZM40.5291 14.46H43.0491V13.46H40.5291V14.46ZM42.5491 13.96V26.168H43.5491V13.96H42.5491ZM42.5491 26.168C42.5491 27.7609 42.8785 29.0744 43.599 30.0492L44.4032 29.4548C43.8544 28.7123 43.5491 27.6365 43.5491 26.168H42.5491ZM43.6032 30.0548C44.3755 31.0698 45.5516 31.54 47.0251 31.54V30.54C45.7734 30.54 44.9334 30.1516 44.399 29.4492L43.6032 30.0548ZM47.0251 31.54C48.5139 31.54 49.6955 31.0716 50.4512 30.0492L49.647 29.4548C49.1334 30.1497 48.299 30.54 47.0251 30.54V31.54ZM50.4512 30.0492C51.1717 29.0744 51.5011 27.7609 51.5011 26.168H50.5011C50.5011 27.6365 50.1958 28.7123 49.647 29.4548L50.4512 30.0492ZM51.5011 26.168V13.96H50.5011V26.168H51.5011ZM51.0011 14.46H53.5211V13.46H51.0011V14.46ZM53.0211 13.96V26.168H54.0211V13.96H53.0211ZM53.0211 26.168C53.0211 28.3102 52.4998 29.927 51.5167 31.0795L52.2775 31.7285C53.4598 30.3424 54.0211 28.4685 54.0211 26.168H53.0211ZM51.5191 31.0767C50.5587 32.1861 49.0931 32.78 47.0251 32.78V33.78C49.2878 33.78 51.0702 33.1232 52.2752 31.7313L51.5191 31.0767ZM47.0251 32.78C44.9369 32.78 43.4627 32.1852 42.5032 31.0767L41.7471 31.7313C42.9529 33.1241 44.7453 33.78 47.0251 33.78V32.78ZM42.5083 31.0828C41.5421 29.9302 41.0291 28.3121 41.0291 26.168H40.0291C40.0291 28.4665 40.5801 30.3392 41.7419 31.7252L42.5083 31.0828ZM41.0291 26.168V13.96H40.0291V26.168H41.0291Z" fill="white" mask="url(#path-2-outside-1_7_2)"/>
</g>
<defs>
<filter id="filter0_d_7_2" x="3.92664" y="13.68" width="53.5945" height="27.6" filterUnits="userSpaceOnUse" color-interpolation-filters="sRGB">
<feFlood flood-opacity="0" result="BackgroundImageFix"/>
<feColorMatrix in="SourceAlpha" type="matrix" values="0 0 0 0 0 0 0 0 0 0 0 0 0 0 0 0 0 0 127 0" result="hardAlpha"/>
<feOffset dy="4"/>
<feGaussianBlur stdDeviation="2"/>
<feComposite in2="hardAlpha" operator="out"/>
<feColorMatrix type="matrix" values="0 0 0 0 0 0 0 0 0 0 0 0 0 0 0 0 0 0 0.25 0"/>
<feBlend mode="normal" in2="BackgroundImageFix" result="effect1_dropShadow_7_2"/>
<feBlend mode="normal" in="SourceGraphic" in2="effect1_dropShadow_7_2" result="shape"/>
</filter>
</defs>
</svg>
